<?xml version="1.0" standalone="no"?><svg xmlns="http://www.w3.org/2000/svg" viewBox="0 0 1440 320"><path fill="#504a4a" fill-opacity="1" d="M0,256L0,192L55.4,192L55.4,192L110.8,192L110.8,224L166.2,224L166.2,224L221.5,224L221.5,96L276.9,96L276.9,224L332.3,224L332.3,192L387.7,192L387.7,224L443.1,224L443.1,64L498.5,64L498.5,224L553.8,224L553.8,96L609.2,96L609.2,224L664.6,224L664.6,160L720,160L720,160L775.4,160L775.4,160L830.8,160L830.8,256L886.2,256L886.2,96L941.5,96L941.5,256L996.9,256L996.9,160L1052.3,160L1052.3,192L1107.7,192L1107.7,256L1163.1,256L1163.1,32L1218.5,32L1218.5,192L1273.8,192L1273.8,320L1329.2,320L1329.2,288L1384.6,288L1384.6,192L1440,192L1440,320L1384.6,320L1384.6,320L1329.2,320L1329.2,320L1273.8,320L1273.8,320L1218.5,320L1218.5,320L1163.1,320L1163.1,320L1107.7,320L1107.7,320L1052.3,320L1052.3,320L996.9,320L996.9,320L941.5,320L941.5,320L886.2,320L886.2,320L830.8,320L830.8,320L775.4,320L775.4,320L720,320L720,320L664.6,320L664.6,320L609.2,320L609.2,320L553.8,320L553.8,320L498.5,320L498.5,320L443.1,320L443.1,320L387.7,320L387.7,320L332.3,320L332.3,320L276.9,320L276.9,320L221.5,320L221.5,320L166.2,320L166.2,320L110.8,320L110.8,320L55.4,320L55.4,320L0,320L0,320Z"></path></svg>